# xmcd
#
# Track frame offsets:
#	150
#	11772
#	18385
#	38637
#	51502
#	65522
#	84232
#	95967
#	114000
#	124735
#	142920
#	162742
#	181492
#	196607
#	216250
#	233067
#	248672
#	260152
#	272897
#	286940
#
# Disc length: 4029 seconds
#
# Revision: 0
# Processed by: cddbd v1.4PL0 Copyright (c) Steve Scherf et al.
# Submitted via: MusicWizard 6.0.0
#
DISCID=200fbb14
DTITLE=Various Artist - Americana: A Tribute To Johnny Cash
DYEAR=1998
DGENRE=Country
TTITLE0=Dead Lives Rising - Ballad Of A Teenage Queen
TTITLE1=Section One - Wanted Man
TTITLE2=Crosseyed - Let The Train Blow The Whistle
TTITLE3=The Boxcar Tramps - Understand Your Man
TTITLE4=Acme Music - Guess Things Happen That Way
TTITLE5=Jeffrey Venturo - I Walk The Line
TTITLE6=Kill Switch...Klick - Folsom Prison Blues
TTITLE7=Penningtones - Big River
TTITLE8=The Staggers - Cry, Cry, Cry
TTITLE9=Chris Livesay (Featuring Sheelagh Harka) - Jackson
TTITLE10=Juke - Redemption
TTITLE11=Henry Boy - Ring Of Fire
TTITLE12=Faith and Disease - When The Roses Bloom Again
TTITLE13=Flam - (They'll Be) Peace In The Valley (For Me)
TTITLE14=Courtney Hudak (With Chris Livesay) - Long Black Veil
TTITLE15=How's Bayou - The Rebel
TTITLE16=The Western Trio - Thanks Alot
TTITLE17=Hypopaedia - Luther Played The Boogie
TTITLE18=Weird Feeling Number Three - Man In Black
TTITLE19=Remora - Rock Island Line
EXTD=(c)1998 Irregular Records, Seatle WA
EXTT0=
EXTT1=
EXTT2=
EXTT3=
EXTT4=
EXTT5=
EXTT6=
EXTT7=
EXTT8=
EXTT9=
EXTT10=
EXTT11=
EXTT12=
EXTT13=
EXTT14=
EXTT15=
EXTT16=
EXTT17=
EXTT18=
EXTT19=
PLAYORDER=
